<svg width="36" height="20" viewBox="0 0 36 20" fill="none" xmlns="http://www.w3.org/2000/svg">
<path d="M2 8.75C1.30964 8.75 0.75 9.30964 0.75 10C0.75 10.6904 1.30964 11.25 2 11.25V8.75ZM34.8839 10.8839C35.372 10.3957 35.372 9.60427 34.8839 9.11612L26.9289 1.16117C26.4408 0.67301 25.6493 0.67301 25.1612 1.16117C24.673 1.64932 24.673 2.44078 25.1612 2.92893L32.2322 10L25.1612 17.0711C24.673 17.5592 24.673 18.3507 25.1612 18.8388C25.6493 19.327 26.4408 19.327 26.9289 18.8388L34.8839 10.8839ZM2 11.25H34V8.75H2V11.25Z" fill="black"/>
</svg>
